<svg width="1280" height="720" xmlns="http://www.w3.org/2000/svg" xmlns:xlink="http://www.w3.org/1999/xlink" overflow="hidden"><defs><clipPath id="clip0"><rect x="389" y="316" width="196" height="88"/></clipPath><clipPath id="clip1"><rect x="389" y="316" width="196" height="88"/></clipPath></defs><g><rect x="0" y="0" width="1280" height="720"/><text fill="#FFFFFF" font-family="REM,REM_MSFontService,sans-serif" font-weight="400" font-size="42.6667" transform="translate(582.733 378)">Technologies</text><text fill="#FFFFFF" font-family="REM,REM_MSFontService,sans-serif" font-weight="400" font-size="42.6667" transform="translate(850.233 378)"></text><g clip-path="url(#clip0)"><g clip-path="url(#clip1)"><g><path d="M-37.4535-41.6773C-34.3365-45.789-30.2134-49.3043-25.6387-51.3185-21.9003-52.9644-17.8605-53.4909-13.8216-53.4909-6.69088-53.4909 0.590041-51.1182 5.79512-46.16 8.87543-43.2258 11.8242-39.5989 13.6367-35.3386 15.1003-31.8982 16.1933-27.9594 16.6342-23.9658 16.9105-21.4616 17.2635-18.8899 17.2635-16.3018 17.2635-8.8711 15.6947-1.83163 12.5829 3.97178 10.0823 8.63533 7.78453 12.1757 3.69843 15.024 1.45263 16.5895-0.632779 18.04-3.44688 19.0111-6.68809 20.1298-10.5812 21.0046-13.702 21.0046-19.8668 21.0046-26.1511 18.7464-31.1302 15.1063-34.9537 12.3109-37.9798 8.44514-40.3661 3.92794-43.3886-1.79341-44.6677-9.15622-44.6677-16.4189-44.6677-26.0039-42.4437-35.0945-37.4534-41.6774ZM-32.422-16.1513C-32.422-2.46572-25.555 8.87572-13.4116 8.87572-1.26838 8.87572 5.00094-2.58285 5.00094-16.2684 5.00094-29.954-1.26838-40.7097-13.4116-40.7097-25.555-40.7097-32.422-29.8369-32.422-16.1513ZM-62.1736-47.3411-62.1736 20.6755C-62.1736 20.8572-62.3209 21.0046-62.5028 21.0046L-73.3737 21.0046C-73.5402 21.0046-73.6751 20.8696-73.6751 20.7031L-73.6751-36.8107-92.349-28.7398C-92.3615-28.7345-92.376-28.7357-92.3874-28.7432-92.3989-28.7507-92.4057-28.7634-92.4057-28.7771L-92.4057-40.3456C-92.4057-40.543-92.2877-40.7212-92.1059-40.7982L-62.5534-53.3205C-62.4692-53.3562-62.3728-53.3473-62.2965-53.2968-62.2203-53.2463-62.1745-53.161-62.1745-53.0695L-62.1745-47.3411ZM26.9865-53.1992C26.9392-53.2686 26.9343-53.3585 26.9737-53.4327 27.0131-53.5068 27.0904-53.5531 27.1744-53.5526L41.2925-53.4812C41.9201-53.4781 42.5054-53.1644 42.8554-52.6434L58.7322-29.0119 74.7912-52.6571C75.0763-53.0768 75.5515-53.3272 76.0588-53.325L90.3018-53.2642C90.3684-53.2639 90.4295-53.2268 90.4604-53.1678 90.4914-53.1088 90.4872-53.0374 90.4495-52.9824L66.3655-17.8222 92.3702 20.6817C92.4131 20.7451 92.4174 20.827 92.3815 20.8946 92.3456 20.9622 92.2753 21.0046 92.1988 21.0046L78.4863 21.0046C77.8552 21.0046 77.2655 20.6902 76.9137 20.1662L58.7322-6.9108 41.0033 20.1928C40.6721 20.6993 40.1076 21.0046 39.5024 21.0046L25.857 21.0046C25.7807 21.0046 25.7107 20.9626 25.6745 20.8954 25.6384 20.8283 25.642 20.7467 25.684 20.683L51.0988-17.8222ZM-140.831 53.1598C-140.831 53.2016-140.864 53.2355-140.906 53.2355L-143.877 53.2355C-143.918 53.2355-143.95 53.2034-143.95 53.1637L-143.95 36.3587C-143.95 36.2878-144.007 36.2303-144.079 36.2303L-150.372 36.2303C-150.445 36.2303-150.505 36.1706-150.505 36.0969L-150.505 33.2415C-150.505 33.1655-150.443 33.1039-150.367 33.1039L-134.375 33.1039C-134.32 33.1039-134.275 33.1489-134.275 33.2045L-134.275 36.1276C-134.275 36.1843-134.321 36.2303-134.377 36.2303L-140.706 36.2303C-140.775 36.2303-140.831 36.2858-140.831 36.3544ZM-131.023 51.7617C-134.977 49.7046-135.736 44.1701-133.381 40.7376-131.756 38.3703-129.346 37.594-126.587 38.0257-123.994 38.4313-122.382 40.0731-121.585 42.5174-121.192 43.7262-121.323 46.3727-121.323 46.3727-121.323 46.3727-127.931 46.3727-131.202 46.3727-131.301 47.7494-130.603 48.8496-129.337 49.4393-127.89 50.1133-126.449 49.9421-125.03 49.3641-124.643 49.2064-124.209 48.9765-123.811 48.772-123.537 48.6305-123.199 48.7116-123.019 48.9628L-122.409 49.8099C-122.174 50.1357-122.241 50.5889-122.559 50.8336-122.806 51.0228-123.199 51.2635-123.336 51.3629-123.514 51.4911-124.058 51.7617-124.058 51.7617-124.058 51.7617-124.374 51.9458-124.799 52.0688-125.825 52.3658-127.106 52.5854-128.322 52.4881-129.305 52.4096-130.24 52.0798-131.023 51.7617ZM-124.473 44.062C-124.573 41.8413-126.064 40.4714-128.095 40.6109-130.003 40.7419-131.383 42.1953-131.252 44.0619-129.535 44.0619-127.807 44.0619-125.84 44.062-125.386 44.062-124.932 44.062-124.473 44.062ZM36.6739 51.9864C32.7195 49.9293 31.96 44.3949 34.316 40.9623 35.9409 38.595 38.3506 37.8187 41.1103 38.2505 43.7026 38.6561 45.3148 40.2978 46.1112 42.7421 46.5051 43.951 46.3735 46.5974 46.3735 46.5974 46.3735 46.5974 39.765 46.5974 36.4947 46.5974 36.3957 47.9741 37.0939 49.0743 38.3597 49.6641 39.8061 50.3381 41.2472 50.1669 42.667 49.5888 43.0544 49.4311 43.4879 49.2012 43.8855 48.9967 44.1606 48.8552 44.4978 48.9363 44.6784 49.1875L45.2879 50.0346C45.5224 50.3604 45.4559 50.8136 45.1376 51.0584 44.8916 51.2475 44.4977 51.4882 44.3602 51.5877 44.1831 51.7158 43.639 51.9864 43.639 51.9864 43.639 51.9864 43.323 52.1705 42.8979 52.2935 41.8716 52.5905 40.5914 52.8101 39.3748 52.7129 38.3913 52.6343 37.4566 52.3045 36.6739 51.9864ZM43.2237 44.2867C43.124 42.066 41.6328 40.6961 39.6017 40.8356 37.6937 40.9667 36.3139 42.4201 36.4448 44.2866 38.1619 44.2866 39.8897 44.2866 41.857 44.2867 42.311 44.2867 42.7651 44.2867 43.2237 44.2867ZM70.3931 51.8789C66.4386 49.8219 65.6791 44.2874 68.0352 40.8548 69.6601 38.4875 72.0698 37.7112 74.8294 38.143 77.4217 38.5486 79.0339 40.1904 79.8303 42.6346 80.2242 43.8435 80.0927 46.4899 80.0927 46.4899 80.0927 46.4899 73.4842 46.4899 70.2139 46.4899 70.1148 47.8666 70.813 48.9668 72.0788 49.5566 73.5252 50.2306 74.9663 50.0594 76.3861 49.4814 76.7735 49.3237 77.2071 49.0938 77.6046 48.8892 77.8797 48.7478 78.217 48.8289 78.3976 49.0801L79.0071 49.9271C79.2416 50.253 79.175 50.7061 78.8568 50.9509 78.6107 51.1401 78.2169 51.3807 78.0793 51.4802 77.9023 51.6084 77.3581 51.8789 77.3581 51.8789 77.3581 51.8789 77.0421 52.063 76.617 52.186 75.5908 52.4831 74.3105 52.7026 73.0939 52.6054 72.1104 52.5268 71.1757 52.1971 70.3931 51.8789ZM76.9429 44.1792C76.8431 41.9585 75.352 40.5886 73.3208 40.7282 71.4129 40.8592 70.033 42.3126 70.164 44.1791 71.8811 44.1791 73.6089 44.1791 75.5761 44.1792 76.0302 44.1792 76.4842 44.1792 76.9429 44.1792ZM123.478 51.9082C119.524 49.8512 118.764 44.3167 121.12 40.8841 122.745 38.5168 125.155 37.7405 127.914 38.1723 130.507 38.5779 132.119 40.2197 132.916 42.664 133.309 43.8728 133.177 46.5192 133.177 46.5192 133.177 46.5192 126.569 46.5192 123.299 46.5192 123.199 47.8958 123.898 48.9961 125.163 49.5859 126.61 50.2599 128.052 50.0887 129.471 49.5107 129.858 49.353 130.292 49.1231 130.69 48.9186 130.964 48.7771 131.301 48.8582 131.482 49.1094L132.092 49.9564C132.326 50.2823 132.26 50.7354 131.941 50.9802 131.695 51.1694 131.301 51.41 131.165 51.5096 130.987 51.6377 130.443 51.9082 130.443 51.9082 130.443 51.9082 130.127 52.0923 129.702 52.2153 128.676 52.5124 127.395 52.7319 126.179 52.6347 125.196 52.5561 124.261 52.2264 123.478 51.9082ZM130.028 44.2085C129.928 41.9878 128.437 40.6179 126.406 40.7575 124.498 40.8885 123.118 42.3418 123.249 44.2084 124.966 44.2084 126.694 44.2084 128.661 44.2085 129.115 44.2085 129.569 44.2085 130.028 44.2085ZM-111.178 37.3614C-109.158 37.3614-107.317 38.1336-105.934 39.3987L-108.024 41.9371C-108.79 41.2534-110.074 40.8375-111.178 40.8375-113.558 40.8375-115.488 42.7685-115.488 45.1478-115.488 47.5271-113.558 49.458-111.178 49.458-110.053 49.458-108.58 49.0072-107.812 48.2998L-107.814 48.3183-105.818 50.4933-105.817 50.5001C-107.232 51.9713-108.978 52.9059-111.178 52.9059-115.469 52.9059-118.95 49.4239-118.95 45.1336-118.95 40.8434-115.469 37.3614-111.178 37.3614ZM-108.024 41.9371C-108.019 41.941-108.016 41.9449-108.011 41.9489L-108.03 41.9489-108.032 41.9465ZM-102.771 33.5402C-102.771 33.3454-102.693 33.1585-102.556 33.0207-102.418 32.883-102.231 32.8056-102.036 32.8056L-100.357 32.8056C-100.192 32.8056-100.034 32.8711-99.9165 32.9878-99.8003 33.1046-99.7348 33.2628-99.7348 33.4279-99.7348 35.8988-99.7348 40.9155-99.7348 40.9155-99.6205 40.7961-99.428 40.6169-99.129 40.3978-98.832 40.1807-98.0962 39.7325-98.0962 39.7325-98.0962 39.7325-97.7748 39.6118-97.4941 39.5103-97.2134 39.4088-96.8932 39.4129-96.8932 39.4129L-96.6358 39.3746-95.8871 39.2804C-95.8871 39.2804-95.5601 39.2524-95.4437 39.2524-95.1901 39.2524-94.9723 39.2477-94.7359 39.2804-93.665 39.4287-92.7388 39.9181-91.9543 40.5513-91.4227 40.9804-91.0212 41.4836-90.7053 42.0906-90.4679 42.5462-90.2436 43.0604-90.2436 43.6453-90.2436 43.9315-90.2436 44.3372-90.2436 44.5732L-90.2417 44.5732-90.2417 52.4586C-90.2417 52.8151-90.5306 53.1039-90.8869 53.1039L-92.4699 53.1039C-92.8097 53.1039-93.0853 52.8285-93.0853 52.4885-93.0853 49.9375-93.0853 44.758-93.0853 44.758-93.1009 44.7605-93.1051 44.7637-93.1051 44.7637L-93.3381 43.7318C-93.3381 43.7318-93.784 42.9276-94.1133 42.6308-94.7603 42.0483-95.7666 41.9514-96.4079 41.9514-98.5809 41.9514-99.7338 44.7637-99.7338 44.7637-99.7338 44.7637-99.7338 44.7638-99.7348 44.7639-99.7348 44.7639-99.7348 49.9822-99.7348 52.5524-99.7348 52.8528-99.9781 53.0962-100.278 53.0962L-102.255 53.0962C-102.54 53.0962-102.771 52.8649-102.771 52.5797ZM-85.4347 40.0818C-85.4347 39.839-85.2378 39.6421-84.995 39.6421L-82.8035 39.6421C-82.5544 39.6421-82.3523 39.8441-82.3523 40.0933-82.3523 40.3387-82.3523 40.8367-82.3523 40.8367-82.2366 40.7156-82.0415 40.5336-81.7372 40.3113-81.4357 40.0909-80.6896 39.6359-80.6896 39.6359-80.6896 39.6359-80.3628 39.5133-80.0778 39.4104-79.7929 39.3073-79.4678 39.3115-79.4678 39.3115L-79.2066 39.2726-78.4465 39.1769C-78.4465 39.1769-78.1146 39.1485-77.9965 39.1485-77.7389 39.1485-77.5179 39.1437-77.2779 39.1769-76.1907 39.3275-75.2506 39.8243-74.4541 40.4671-73.9145 40.9027-73.507 41.4136-73.1862 42.0296-72.9453 42.4923-72.7176 43.0141-72.7176 43.608-72.7176 43.8985-72.7176 44.3104-72.7176 44.5499L-72.7156 44.5499-72.7156 52.7658C-72.7156 53.0112-72.9144 53.2099-73.1596 53.2099L-75.1317 53.2099C-75.3916 53.2099-75.6022 52.9993-75.6022 52.7394-75.6022 50.0989-75.6022 44.7376-75.6022 44.7376-75.6181 44.7401-75.6224 44.7434-75.6224 44.7434L-75.8589 43.6959C-75.8589 43.6959-76.3116 42.8794-76.6459 42.5782-77.3026 41.9868-78.3242 41.8884-78.9753 41.8884-81.1816 41.8884-82.3514 44.7434-82.3514 44.7434-82.3514 44.7434-82.3517 44.7434-82.3523 44.7436-82.3523 44.7436-82.3523 50.1225-82.3523 52.772-82.3523 53.0055-82.5417 53.1948-82.7752 53.1948L-84.9993 53.1948C-85.2398 53.1948-85.4347 52.9998-85.4347 52.7594ZM-61.6635 37.8975C-57.502 37.8975-54.1246 41.275-54.1246 45.4365-54.1246 49.598-57.502 52.9755-61.6635 52.9755-65.825 52.9755-69.2025 49.598-69.2025 45.4365-69.2025 41.275-65.825 37.8975-61.6635 37.8975ZM-66.1895 45.4365C-66.1895 47.9348-64.1618 49.9625-61.6635 49.9625-59.1651 49.9625-57.1375 47.9348-57.1375 45.4365-57.1375 42.9382-59.1651 40.9106-61.6635 40.9106-64.1618 40.9106-66.1895 42.9382-66.1895 45.4365ZM-36.6404 37.9757C-32.4789 37.9757-29.1014 41.3532-29.1014 45.5147-29.1014 49.6762-32.4789 53.0537-36.6404 53.0537-40.8019 53.0537-44.1794 49.6762-44.1794 45.5147-44.1794 41.3532-40.8019 37.9757-36.6404 37.9757ZM-41.1664 45.5147C-41.1664 48.013-39.1387 50.0406-36.6404 50.0406-34.142 50.0406-32.1144 48.013-32.1144 45.5147-32.1144 43.0164-34.142 40.9887-36.6404 40.9887-39.1387 40.9887-41.1664 43.0164-41.1664 45.5147ZM-50.6494 33.684C-50.6494 33.2441-50.2928 32.8876-49.853 32.8876L-48.5584 32.8876C-48.1186 32.8876-47.7621 33.2441-47.7621 33.684L-47.7621 52.3557C-47.7621 52.8532-48.1652 53.2563-48.6627 53.2563L-49.8009 53.2563C-50.2695 53.2563-50.6494 52.8764-50.6494 52.4079ZM-25.5958 44.5753C-26.1161 43.1494-26.2023 41.7729-25.8919 40.3747-24.921 36.0014-20.0755 34.7065-17.2841 37.0297-17.1819 37.1147-17.0538 37.1685-16.8562 37.2849-16.803 37.0156-16.7328 36.5267-16.6772 36.1525-16.6396 35.8993-16.4229 35.7114-16.1669 35.71-15.909 35.7088-15.6523 35.71-15.3852 35.71-15.1303 35.71-14.7651 35.71-14.4597 35.71-14.3361 35.7101-14.2175 35.7592-14.1302 35.8465-14.0428 35.934-13.9938 36.0524-13.9938 36.176-13.9938 36.5266-13.9939 37.0197-13.9937 37.2382-13.9926 38.5178-13.9817 39.7416-13.9937 41.0212-14.0018 41.8825-13.9815 42.7609-13.9937 43.6408-14.0086 44.7101-14.126 45.7816-14.1264 46.8281-14.1268 47.8371-14.2338 48.8214-14.6368 49.7677-15.3534 51.4505-16.631 52.5007-18.3759 52.8497-19.9584 53.166-21.5908 53.1575-23.1711 52.7478-23.7473 52.5984-24.3753 52.3183-24.9473 52.0571-25.1819 51.95-25.2913 51.6778-25.1962 51.4382L-24.6302 50.0113C-24.5901 49.9099-24.5101 49.8293-24.409 49.7883-24.3079 49.7471-24.1944 49.7491-24.0949 49.7937-23.8212 49.9162-23.5254 50.0487-23.2652 50.164-22.0917 50.6841-20.8682 50.8893-19.5948 50.698-17.5608 50.3923-16.5032 48.8542-16.8755 46.7328-16.9736 46.758-17.0894 46.7561-17.1622 46.8111-19.9695 48.9305-23.4695 48.2498-25.2741 45.2265-25.3838 45.0426-25.4696 44.8445-25.5958 44.5753ZM-16.7573 43.3705C-16.6731 42.9514-16.5329 42.5349-16.514 42.1128-16.4004 39.5815-18.6229 37.774-20.9654 38.4711-22.5396 38.9396-23.4836 40.3101-23.4466 42.073-23.4109 43.771-22.383 45.1351-20.8831 45.5021-19.3896 45.8674-17.5291 45.3268-16.7573 43.3705ZM30.1693 52.8882C29.6724 52.9061 29.0111 52.8966 28.3317 52.9056 27.897 52.9114 27.4731 52.9024 27.0713 52.9056 26.873 52.9072 26.667 52.8989 26.4935 52.8988 26.4035 52.8987 26.3175 52.8962 26.2364 52.8888 26.2314 52.884 26.2227 52.8784 26.2291 52.8882 26.2291 52.8882 26.2291 52.8881 26.2291 52.8881 26.2291 52.8881 26.2291 52.8881 26.2291 52.8882 26.2291 52.8882 26.2291 52.8882 26.2291 52.8882 26.2291 52.8882 26.2291 52.8882 26.2291 52.8882 26.2291 52.8882 26.2291 52.8882 26.2291 52.8882 26.1871 52.8755 26.1752 52.8552 26.2291 52.8881 26.2042 52.8569 22.5177 47.845 20.8591 45.5685 20.2869 44.7832 19.6581 44.4307 18.5384 44.8047 18.434 46.1034 18.5058 47.4813 18.4929 48.8535 18.48 50.238 18.5574 51.444 18.5574 52.9056 17.4329 52.9056 16.252 52.9056 15.2541 52.9056 15.2049 52.7325 15.2541 49.4985 15.2541 49.4985 15.2541 49.4985 15.2541 47.3165 15.2541 46.3206 15.2541 43.5768 15.2541 41.9306 15.2541 41.9306 15.2541 41.9306 15.2668 39.7721 15.2541 37.5405 15.244 35.7535 15.2475 34.8768 15.2525 33.5648 15.2533 33.3357 15.4393 33.1506 15.6683 33.1507 15.7864 33.1507 15.914 33.1507 16.0261 33.1506 18.6063 33.1473 21.2114 33.0815 23.7897 33.1506 24.8331 33.1785 25.8533 33.0736 26.8553 33.365 29.2914 34.0735 30.5458 35.7413 30.7153 38.2802 30.876 40.6873 29.7267 42.7779 27.597 43.7672 26.8394 44.1191 25.9941 44.2844 25.1854 44.5229 24.9154 44.6025 24.6345 44.6448 24.1551 44.748 26.118 47.4708 28.1812 50.2803 30.1703 52.8882ZM26.2291 52.8882C26.2291 52.8882 26.2291 52.8882 26.2292 52.8882 26.2275 52.8883 26.1975 52.8851 26.2291 52.8882ZM26.2311 52.8892C26.2305 52.8889 26.2299 52.8885 26.2292 52.8882 26.2292 52.8882 26.2292 52.8882 26.2292 52.8882 26.2292 52.8882 26.2292 52.8882 26.2292 52.8882 26.2314 52.8887 26.2318 52.8891 26.2311 52.8892ZM26.1746 36.5117C25.3171 36.3285 24.4663 36.0423 23.6006 35.9857 22.2149 35.895 20.8192 35.9505 19.4278 35.959 19.1477 35.9608 18.868 36.029 18.5712 36.0687 18.5712 37.9301 18.5712 39.7178 18.5712 41.5601 18.9838 41.5896 19.3121 41.6367 19.6397 41.6325 21.3252 41.611 23.0133 41.6247 24.6951 41.5295 25.8099 41.4663 26.7672 40.971 27.1382 39.8301 27.5292 38.6276 27.4092 37.4904 26.1746 36.5117ZM26.2292 52.8882C26.2292 52.8882 26.2292 52.8882 26.2292 52.8882 26.2292 52.8883 26.2292 52.8883 26.2292 52.8882ZM92.4797 41.0714C92.4797 41.1677 92.4414 41.2601 92.3733 41.3282 92.3051 41.3963 92.2126 41.4344 92.1163 41.4343 92.011 41.4342 91.8531 41.4342 91.797 41.4353 91.4233 41.4425 91.3879 41.4237 90.9828 41.4353 90.1633 41.4586 89.2604 41.4277 88.4123 41.4102 88.2927 41.4076 88.1772 41.4534 88.0917 41.5372 88.0062 41.6208 87.9581 41.7354 87.9581 41.8551L87.9581 52.119C87.9581 52.2934 87.8167 52.4347 87.6424 52.4347L85.2776 52.4347C85.0813 52.4347 84.9222 52.2756 84.9222 52.0793L84.9222 41.9198C84.9222 41.6532 84.706 41.437 84.4394 41.437L82.6521 41.437C82.4108 41.437 82.2152 41.2414 82.2152 41.0002L82.2152 38.9916C82.2152 38.7753 82.3906 38.6 82.6068 38.6L84.4453 38.6C84.5614 38.6 84.6728 38.5537 84.7547 38.4714 84.8365 38.3891 84.8824 38.2776 84.8819 38.1616 84.8803 37.7732 84.8753 37.3461 84.8907 36.9847 84.9209 36.2674 84.9084 35.5385 85.0373 34.8371 85.5155 32.2346 87.9836 30.6514 90.5521 31.2913 91.3922 31.5006 92.3077 31.8028 93.1627 32.0853 93.2341 32.1089 93.2924 32.161 93.3239 32.2293 93.3553 32.2975 93.357 32.3758 93.3286 32.4453L92.4877 34.5032C92.4333 34.6361 92.2883 34.7078 92.1495 34.6701 91.5505 34.5075 90.9041 34.3077 90.3229 34.2213 88.8166 33.9972 88.054 34.6091 87.9568 36.1081 87.9147 36.7588 87.9263 37.476 87.9395 38.1496 87.944 38.3874 88.1388 38.5772 88.3765 38.5759L92.0612 38.5558C92.172 38.5551 92.2785 38.5987 92.3569 38.6769 92.4355 38.7549 92.4797 38.8611 92.4797 38.9719ZM48.8591 45.4951C49.021 42.6199 50.092 40.3648 52.6326 39.0622 54.9028 37.8983 57.1805 37.8684 59.3395 39.4218 59.4412 39.4949 59.5553 39.5512 59.6655 39.6119 59.702 39.6321 59.7446 39.6412 59.7872 39.6565 59.994 39.5919 60.0145 39.4906 60.0365 39.3695 60.0689 39.1912 60.035 38.9701 60.0365 38.7606 60.0495 36.9479 60.0398 34.5674 60.037 32.5021 60.0369 32.458 60.0544 32.4158 60.0855 32.3846 60.1166 32.3535 60.1588 32.336 60.2029 32.336L63.1603 32.336C63.2058 32.336 63.2492 32.3542 63.2812 32.3865 63.313 32.4188 63.3306 32.4626 63.3299 32.5081L63.0404 52.72C63.0393 52.8031 62.9715 52.87 62.8883 52.87L60.1959 52.87C60.1076 52.87 60.0359 52.7988 60.0352 52.7107 60.0329 52.4279 60.0305 52.0934 60.0365 51.854 60.04 51.7139 60.0576 51.5681 60.0365 51.4933 59.983 51.4933 59.9721 51.4833 59.8957 51.4768 59.8193 51.4701 59.7674 51.4428 59.731 51.4669 55.0043 54.5909 49.5613 52.0302 48.9039 46.3678ZM52.339 47.3807C52.9402 49.0123 54.1621 49.8807 55.8883 49.9883 57.5962 50.0947 58.9745 49.4533 59.7967 47.9247 61.0343 45.6244 60.398 41.5204 56.2493 41.1203 52.376 41.2142 51.4244 44.8984 52.339 47.3807ZM136.034 45.4169C136.197 42.5417 137.268 40.2866 139.808 38.9841 142.079 37.8202 144.356 37.7903 146.515 39.3436 146.616 39.4167 146.731 39.473 146.841 39.5337 146.877 39.5538 146.92 39.5631 146.963 39.5783 147.169 39.5137 147.19 39.4124 147.212 39.2914 147.245 39.113 147.21 38.8919 147.212 38.6824 147.225 36.8698 147.215 34.4892 147.212 32.4239 147.212 32.3799 147.23 32.3376 147.261 32.3065 147.292 32.2753 147.334 32.2578 147.378 32.2578L150.336 32.2578C150.381 32.2578 150.425 32.276 150.456 32.3083 150.488 32.3407 150.506 32.3845 150.505 32.4299L150.216 52.6418C150.215 52.725 150.146 52.7918 150.063 52.7918L147.372 52.7918C147.283 52.7918 147.211 52.7207 147.21 52.6325 147.208 52.3498 147.205 52.0151 147.212 51.7758 147.215 51.6357 147.233 51.4899 147.212 51.4151 147.159 51.4151 147.148 51.4051 147.071 51.3985 146.994 51.3919 146.943 51.3647 146.906 51.3887 142.179 54.5127 136.737 51.9521 136.079 46.2896ZM139.515 47.3026C140.116 48.9341 141.337 49.8025 143.064 49.9101 144.772 50.0165 146.15 49.3751 146.972 47.8465 148.21 45.5462 147.574 41.4422 143.425 41.0421 139.551 41.136 138.6 44.8203 139.515 47.3026ZM103.465 40.0224C103.465 39.78 103.662 39.5835 103.904 39.5835L106.097 39.5835C106.346 39.5835 106.547 39.7852 106.547 40.0338 106.547 40.2795 106.547 40.7781 106.547 40.7781 106.663 40.657 106.858 40.475 107.163 40.2527 107.464 40.0323 108.21 39.5772 108.21 39.5772 108.21 39.5772 108.536 39.4547 108.822 39.3517 109.107 39.2487 109.431 39.2529 109.431 39.2529L109.693 39.214 110.453 39.1183C110.453 39.1183 110.785 39.0899 110.903 39.0899 111.161 39.0899 111.382 39.0851 111.622 39.1183 112.709 39.2689 113.649 39.7656 114.446 40.4085 114.985 40.844 115.393 41.355 115.713 41.971 115.954 42.4337 116.182 42.9556 116.182 43.5494 116.182 43.8399 116.182 44.2518 116.182 44.4913L116.184 44.4913 116.184 52.7081C116.184 52.9528 115.986 53.1513 115.74 53.1513L113.767 53.1513C113.508 53.1513 113.298 52.9411 113.298 52.6817 113.298 50.0408 113.298 44.679 113.298 44.679 113.281 44.6814 113.277 44.6848 113.277 44.6848L113.041 43.6371C113.041 43.6371 112.588 42.8207 112.253 42.5195 111.597 41.9282 110.576 41.8298 109.924 41.8298 107.718 41.8298 106.548 44.6847 106.548 44.6847 106.548 44.6847 106.548 44.6848 106.547 44.6849 106.547 44.6849 106.547 50.0645 106.547 52.7141 106.547 52.9472 106.358 53.1361 106.125 53.1361L103.899 53.1361C103.66 53.1361 103.465 52.9416 103.465 52.7016ZM-10.6825 36.3434C-10.7353 36.2502-10.7346 36.136-10.6807 36.0433-10.6268 35.9508-10.5278 35.8938-10.4207 35.8938L-9.0273 35.8938C-8.41203 35.8938-7.84275 36.2196-7.53103 36.7502L-3.83531 43.0392-0.244984 36.7637C0.0621914 36.2268 0.633365 35.8956 1.25193 35.8956L2.74291 35.8956C2.84919 35.8956 2.94746 35.9521 3.00087 36.044 3.05428 36.1359 3.05479 36.2493 3.0022 36.3416L-6.38859 52.8327C-6.64207 53.2777-7.1149 53.5527-7.62712 53.5527L-9.40306 53.5527C-9.49555 53.5527-9.58103 53.5034-9.62744 53.4234-9.67384 53.3434-9.67413 53.2447-9.6282 53.1645L-5.83213 46.5294C-5.54304 46.0241-5.54193 45.4038-5.82919 44.8975ZM97.3372 32.2453C98.5359 32.2453 99.5081 33.2179 99.5081 34.4163 99.5081 35.6147 98.5359 36.5873 97.3372 36.5873 96.1388 36.5873 95.1663 35.6147 95.1663 34.4163 95.1663 33.2179 96.1388 32.2453 97.3372 32.2453ZM95.8443 39.7725C95.8443 39.5574 96.0187 39.3831 96.2337 39.3831L98.3913 39.3831C98.6336 39.3831 98.83 39.5797 98.83 39.8223L98.83 52.7262C98.83 52.9636 98.6375 53.1561 98.4001 53.1561L96.2451 53.1561C96.0237 53.1561 95.8443 52.9766 95.8443 52.7553Z" fill="#FFFFFF" transform="matrix(1 0 0 1.00237 486.803 377.399)"/></g></g></g></g></svg>